<mxfile host="Electron" modified="2023-09-14T04:24:22.113Z" agent="Mozilla/5.0 (Macintosh; Intel Mac OS X 10_15_7) AppleWebKit/537.36 (KHTML, like Gecko) draw.io/21.6.8 Chrome/114.0.5735.289 Electron/25.5.0 Safari/537.36" etag="792cIRGwInn_77Sk249b" version="21.6.8" type="device" pages="4">
  <diagram name="On Demand Payment" id="Gg0yZXddBIerggFjbY7Z">
    <mxGraphModel dx="1114" dy="999" grid="1" gridSize="10" guides="1" tooltips="1" connect="1" arrows="1" fold="1" page="1" pageScale="1" pageWidth="1169" pageHeight="826" background="none" math="0" shadow="0">
      <root>
        <mxCell id="0" />
        <mxCell id="1" parent="0" />
        <mxCell id="44tqqqxePrqwcwKDG7mr-8" style="edgeStyle=orthogonalEdgeStyle;rounded=0;orthogonalLoop=1;jettySize=auto;html=1;entryX=0;entryY=0.5;entryDx=0;entryDy=0;dashed=1;flowAnimation=1;" edge="1" parent="1" source="44tqqqxePrqwcwKDG7mr-1" target="44tqqqxePrqwcwKDG7mr-2">
          <mxGeometry relative="1" as="geometry" />
        </mxCell>
        <mxCell id="44tqqqxePrqwcwKDG7mr-1" value="Make&amp;nbsp;&lt;br&gt;Payment" style="ellipse;whiteSpace=wrap;html=1;aspect=fixed;fillColor=#008a00;fontColor=#ffffff;strokeColor=#005700;" vertex="1" parent="1">
          <mxGeometry x="90" y="220" width="80" height="80" as="geometry" />
        </mxCell>
        <mxCell id="44tqqqxePrqwcwKDG7mr-9" style="edgeStyle=orthogonalEdgeStyle;rounded=0;orthogonalLoop=1;jettySize=auto;html=1;entryX=0;entryY=0.5;entryDx=0;entryDy=0;dashed=1;flowAnimation=1;" edge="1" parent="1" source="44tqqqxePrqwcwKDG7mr-2" target="44tqqqxePrqwcwKDG7mr-3">
          <mxGeometry relative="1" as="geometry" />
        </mxCell>
        <mxCell id="44tqqqxePrqwcwKDG7mr-2" value="Experience API" style="rounded=1;whiteSpace=wrap;html=1;fillColor=#008a00;fontColor=#ffffff;strokeColor=#005700;" vertex="1" parent="1">
          <mxGeometry x="330" y="230" width="120" height="60" as="geometry" />
        </mxCell>
        <mxCell id="44tqqqxePrqwcwKDG7mr-10" style="edgeStyle=orthogonalEdgeStyle;rounded=0;orthogonalLoop=1;jettySize=auto;html=1;entryX=0.5;entryY=1;entryDx=0;entryDy=0;dashed=1;flowAnimation=1;" edge="1" parent="1" source="44tqqqxePrqwcwKDG7mr-3" target="44tqqqxePrqwcwKDG7mr-4">
          <mxGeometry relative="1" as="geometry">
            <mxPoint x="620" y="410" as="targetPoint" />
          </mxGeometry>
        </mxCell>
        <mxCell id="44tqqqxePrqwcwKDG7mr-11" style="edgeStyle=orthogonalEdgeStyle;rounded=0;orthogonalLoop=1;jettySize=auto;html=1;entryX=0.5;entryY=0;entryDx=0;entryDy=0;entryPerimeter=0;dashed=1;flowAnimation=1;" edge="1" parent="1" source="44tqqqxePrqwcwKDG7mr-3" target="44tqqqxePrqwcwKDG7mr-5">
          <mxGeometry relative="1" as="geometry">
            <Array as="points">
              <mxPoint x="610" y="350" />
              <mxPoint x="360" y="350" />
            </Array>
          </mxGeometry>
        </mxCell>
        <mxCell id="44tqqqxePrqwcwKDG7mr-15" style="edgeStyle=orthogonalEdgeStyle;rounded=0;orthogonalLoop=1;jettySize=auto;html=1;dashed=1;flowAnimation=1;" edge="1" parent="1" source="44tqqqxePrqwcwKDG7mr-3" target="44tqqqxePrqwcwKDG7mr-13">
          <mxGeometry relative="1" as="geometry">
            <Array as="points">
              <mxPoint x="620" y="350" />
              <mxPoint x="709" y="350" />
            </Array>
          </mxGeometry>
        </mxCell>
        <mxCell id="44tqqqxePrqwcwKDG7mr-19" style="edgeStyle=orthogonalEdgeStyle;rounded=0;orthogonalLoop=1;jettySize=auto;html=1;entryX=0;entryY=0.5;entryDx=0;entryDy=0;dashed=1;flowAnimation=1;" edge="1" parent="1" source="44tqqqxePrqwcwKDG7mr-3" target="44tqqqxePrqwcwKDG7mr-6">
          <mxGeometry relative="1" as="geometry" />
        </mxCell>
        <mxCell id="44tqqqxePrqwcwKDG7mr-3" value="Capability API" style="rounded=1;whiteSpace=wrap;html=1;fillColor=#008a00;fontColor=#ffffff;strokeColor=#005700;" vertex="1" parent="1">
          <mxGeometry x="560" y="230" width="120" height="60" as="geometry" />
        </mxCell>
        <mxCell id="44tqqqxePrqwcwKDG7mr-4" value="Demand Deposit" style="shape=process;whiteSpace=wrap;html=1;backgroundOutline=1;fillColor=#6d8764;fontColor=#ffffff;strokeColor=#3A5431;" vertex="1" parent="1">
          <mxGeometry x="560" y="80" width="120" height="60" as="geometry" />
        </mxCell>
        <mxCell id="44tqqqxePrqwcwKDG7mr-16" style="edgeStyle=orthogonalEdgeStyle;rounded=0;orthogonalLoop=1;jettySize=auto;html=1;entryX=0;entryY=0.5;entryDx=0;entryDy=0;dashed=1;flowAnimation=1;" edge="1" parent="1" source="44tqqqxePrqwcwKDG7mr-5" target="44tqqqxePrqwcwKDG7mr-12">
          <mxGeometry relative="1" as="geometry">
            <Array as="points">
              <mxPoint x="420" y="460" />
              <mxPoint x="420" y="460" />
            </Array>
          </mxGeometry>
        </mxCell>
        <mxCell id="44tqqqxePrqwcwKDG7mr-5" value="" style="sketch=0;points=[[0,0,0],[0.25,0,0],[0.5,0,0],[0.75,0,0],[1,0,0],[0,1,0],[0.25,1,0],[0.5,1,0],[0.75,1,0],[1,1,0],[0,0.25,0],[0,0.5,0],[0,0.75,0],[1,0.25,0],[1,0.5,0],[1,0.75,0]];outlineConnect=0;fontColor=#232F3E;gradientColor=#945DF2;gradientDirection=north;fillColor=#5A30B5;strokeColor=#ffffff;dashed=0;verticalLabelPosition=bottom;verticalAlign=top;align=center;html=1;fontSize=12;fontStyle=0;aspect=fixed;shape=mxgraph.aws4.resourceIcon;resIcon=mxgraph.aws4.managed_streaming_for_kafka;" vertex="1" parent="1">
          <mxGeometry x="320" y="413" width="78" height="78" as="geometry" />
        </mxCell>
        <mxCell id="44tqqqxePrqwcwKDG7mr-24" style="edgeStyle=orthogonalEdgeStyle;rounded=0;orthogonalLoop=1;jettySize=auto;html=1;entryX=0.5;entryY=0;entryDx=0;entryDy=0;dashed=1;flowAnimation=1;" edge="1" parent="1" source="44tqqqxePrqwcwKDG7mr-6" target="44tqqqxePrqwcwKDG7mr-26">
          <mxGeometry relative="1" as="geometry">
            <mxPoint x="940" y="660" as="targetPoint" />
          </mxGeometry>
        </mxCell>
        <mxCell id="44tqqqxePrqwcwKDG7mr-6" value="Fuse API" style="shape=hexagon;perimeter=hexagonPerimeter2;whiteSpace=wrap;html=1;fixedSize=1;fillColor=#e51400;fontColor=#ffffff;strokeColor=#B20000;" vertex="1" parent="1">
          <mxGeometry x="880" y="220" width="120" height="80" as="geometry" />
        </mxCell>
        <mxCell id="44tqqqxePrqwcwKDG7mr-20" style="edgeStyle=orthogonalEdgeStyle;rounded=0;orthogonalLoop=1;jettySize=auto;html=1;entryX=1;entryY=0.5;entryDx=0;entryDy=0;dashed=1;exitX=0;exitY=0.5;exitDx=0;exitDy=0;flowAnimation=1;" edge="1" parent="1" source="44tqqqxePrqwcwKDG7mr-26" target="44tqqqxePrqwcwKDG7mr-18">
          <mxGeometry relative="1" as="geometry">
            <mxPoint x="880" y="700" as="sourcePoint" />
          </mxGeometry>
        </mxCell>
        <mxCell id="44tqqqxePrqwcwKDG7mr-17" style="edgeStyle=orthogonalEdgeStyle;rounded=0;orthogonalLoop=1;jettySize=auto;html=1;dashed=1;dashPattern=8 8;flowAnimation=1;" edge="1" parent="1" source="44tqqqxePrqwcwKDG7mr-12" target="44tqqqxePrqwcwKDG7mr-13">
          <mxGeometry relative="1" as="geometry" />
        </mxCell>
        <mxCell id="44tqqqxePrqwcwKDG7mr-12" value="Ext BP Event&lt;br&gt;Consumer" style="rounded=1;whiteSpace=wrap;html=1;fillColor=#008a00;fontColor=#ffffff;strokeColor=#005700;" vertex="1" parent="1">
          <mxGeometry x="490" y="430" width="120" height="60" as="geometry" />
        </mxCell>
        <mxCell id="44tqqqxePrqwcwKDG7mr-13" value="" style="sketch=0;outlineConnect=0;fontColor=#232F3E;gradientColor=none;fillColor=#2E27AD;strokeColor=none;dashed=0;verticalLabelPosition=bottom;verticalAlign=top;align=center;html=1;fontSize=12;fontStyle=0;aspect=fixed;pointerEvents=1;shape=mxgraph.aws4.rds_oracle_instance_alt;" vertex="1" parent="1">
          <mxGeometry x="670" y="421" width="78" height="78" as="geometry" />
        </mxCell>
        <mxCell id="44tqqqxePrqwcwKDG7mr-14" value="" style="outlineConnect=0;dashed=0;verticalLabelPosition=bottom;verticalAlign=top;align=center;html=1;shape=mxgraph.aws3.cache_node;fillColor=#2E73B8;gradientColor=none;" vertex="1" parent="1">
          <mxGeometry x="450" y="110" width="60" height="63" as="geometry" />
        </mxCell>
        <mxCell id="44tqqqxePrqwcwKDG7mr-21" style="edgeStyle=orthogonalEdgeStyle;rounded=0;orthogonalLoop=1;jettySize=auto;html=1;dashed=1;flowAnimation=1;" edge="1" parent="1" source="44tqqqxePrqwcwKDG7mr-18" target="44tqqqxePrqwcwKDG7mr-13">
          <mxGeometry relative="1" as="geometry">
            <mxPoint x="710" y="510" as="targetPoint" />
            <Array as="points">
              <mxPoint x="620" y="570" />
              <mxPoint x="709" y="570" />
            </Array>
          </mxGeometry>
        </mxCell>
        <mxCell id="44tqqqxePrqwcwKDG7mr-31" style="edgeStyle=orthogonalEdgeStyle;rounded=0;orthogonalLoop=1;jettySize=auto;html=1;entryX=1;entryY=0.5;entryDx=0;entryDy=0;flowAnimation=1;" edge="1" parent="1" source="44tqqqxePrqwcwKDG7mr-18" target="44tqqqxePrqwcwKDG7mr-22">
          <mxGeometry relative="1" as="geometry" />
        </mxCell>
        <mxCell id="44tqqqxePrqwcwKDG7mr-33" style="edgeStyle=orthogonalEdgeStyle;rounded=0;orthogonalLoop=1;jettySize=auto;html=1;exitX=0;exitY=0.5;exitDx=0;exitDy=0;entryX=1;entryY=0.5;entryDx=0;entryDy=0;entryPerimeter=0;flowAnimation=1;" edge="1" parent="1" source="44tqqqxePrqwcwKDG7mr-18" target="44tqqqxePrqwcwKDG7mr-32">
          <mxGeometry relative="1" as="geometry" />
        </mxCell>
        <mxCell id="-ej2Dla1abTBaA0Ay6HL-3" style="edgeStyle=orthogonalEdgeStyle;rounded=0;orthogonalLoop=1;jettySize=auto;html=1;entryX=1;entryY=0.5;entryDx=0;entryDy=0;" edge="1" parent="1" source="44tqqqxePrqwcwKDG7mr-18" target="-ej2Dla1abTBaA0Ay6HL-1">
          <mxGeometry relative="1" as="geometry" />
        </mxCell>
        <mxCell id="-ej2Dla1abTBaA0Ay6HL-4" style="edgeStyle=orthogonalEdgeStyle;rounded=0;orthogonalLoop=1;jettySize=auto;html=1;entryX=1;entryY=0.5;entryDx=0;entryDy=0;" edge="1" parent="1" source="44tqqqxePrqwcwKDG7mr-18" target="-ej2Dla1abTBaA0Ay6HL-2">
          <mxGeometry relative="1" as="geometry" />
        </mxCell>
        <UserObject label="Funding API" link="data:page/id,Fk7SaA0x7shQRCRBxRCG" id="44tqqqxePrqwcwKDG7mr-18">
          <mxCell style="rounded=1;whiteSpace=wrap;html=1;fillColor=#008a00;fontColor=#ffffff;strokeColor=#005700;" vertex="1" parent="1">
            <mxGeometry x="560" y="630" width="120" height="60" as="geometry" />
          </mxCell>
        </UserObject>
        <mxCell id="44tqqqxePrqwcwKDG7mr-28" style="edgeStyle=orthogonalEdgeStyle;rounded=0;orthogonalLoop=1;jettySize=auto;html=1;entryX=1;entryY=0.5;entryDx=0;entryDy=0;flowAnimation=1;" edge="1" parent="1" source="44tqqqxePrqwcwKDG7mr-22" target="44tqqqxePrqwcwKDG7mr-27">
          <mxGeometry relative="1" as="geometry" />
        </mxCell>
        <mxCell id="44tqqqxePrqwcwKDG7mr-22" value="CPIF&lt;br&gt;Monitory Posting" style="shape=process;whiteSpace=wrap;html=1;backgroundOutline=1;fillColor=#6d8764;fontColor=#ffffff;strokeColor=#3A5431;" vertex="1" parent="1">
          <mxGeometry x="320" y="630" width="120" height="60" as="geometry" />
        </mxCell>
        <mxCell id="44tqqqxePrqwcwKDG7mr-26" value="BillGO Payment Orchestrator" style="shape=process;whiteSpace=wrap;html=1;backgroundOutline=1;fillColor=#e51400;fontColor=#ffffff;strokeColor=#B20000;" vertex="1" parent="1">
          <mxGeometry x="880" y="630" width="120" height="60" as="geometry" />
        </mxCell>
        <mxCell id="44tqqqxePrqwcwKDG7mr-27" value="Fidelity" style="shape=hexagon;perimeter=hexagonPerimeter2;whiteSpace=wrap;html=1;fixedSize=1;fillColor=#6d8764;fontColor=#ffffff;strokeColor=#3A5431;" vertex="1" parent="1">
          <mxGeometry x="70" y="620" width="120" height="80" as="geometry" />
        </mxCell>
        <mxCell id="44tqqqxePrqwcwKDG7mr-35" style="edgeStyle=orthogonalEdgeStyle;rounded=0;orthogonalLoop=1;jettySize=auto;html=1;entryX=1;entryY=0.5;entryDx=0;entryDy=0;entryPerimeter=0;flowAnimation=1;" edge="1" parent="1" source="44tqqqxePrqwcwKDG7mr-29" target="44tqqqxePrqwcwKDG7mr-34">
          <mxGeometry relative="1" as="geometry" />
        </mxCell>
        <mxCell id="44tqqqxePrqwcwKDG7mr-29" value="Notification Webhook" style="rounded=1;whiteSpace=wrap;html=1;fillColor=#008a00;fontColor=#ffffff;strokeColor=#005700;" vertex="1" parent="1">
          <mxGeometry x="560" y="760" width="120" height="60" as="geometry" />
        </mxCell>
        <mxCell id="44tqqqxePrqwcwKDG7mr-36" style="edgeStyle=orthogonalEdgeStyle;rounded=0;orthogonalLoop=1;jettySize=auto;html=1;entryX=1;entryY=0.5;entryDx=0;entryDy=0;flowAnimation=1;" edge="1" parent="1" source="44tqqqxePrqwcwKDG7mr-30" target="44tqqqxePrqwcwKDG7mr-29">
          <mxGeometry relative="1" as="geometry" />
        </mxCell>
        <mxCell id="44tqqqxePrqwcwKDG7mr-30" value="BillGO Notification&lt;br&gt;Orchestrator" style="shape=process;whiteSpace=wrap;html=1;backgroundOutline=1;fillColor=#e51400;fontColor=#ffffff;strokeColor=#B20000;" vertex="1" parent="1">
          <mxGeometry x="880" y="760" width="130" height="60" as="geometry" />
        </mxCell>
        <UserObject label="" tooltip="pvt-payments-billpay-externalfunding" id="44tqqqxePrqwcwKDG7mr-32">
          <mxCell style="sketch=0;points=[[0,0,0],[0.25,0,0],[0.5,0,0],[0.75,0,0],[1,0,0],[0,1,0],[0.25,1,0],[0.5,1,0],[0.75,1,0],[1,1,0],[0,0.25,0],[0,0.5,0],[0,0.75,0],[1,0.25,0],[1,0.5,0],[1,0.75,0]];outlineConnect=0;fontColor=#232F3E;gradientColor=#945DF2;gradientDirection=north;fillColor=#5A30B5;strokeColor=#ffffff;dashed=0;verticalLabelPosition=bottom;verticalAlign=top;align=center;html=1;fontSize=12;fontStyle=0;aspect=fixed;shape=mxgraph.aws4.resourceIcon;resIcon=mxgraph.aws4.managed_streaming_for_kafka;" vertex="1" parent="1">
            <mxGeometry x="320" y="540" width="78" height="78" as="geometry" />
          </mxCell>
        </UserObject>
        <UserObject label="" tooltip="pvt-payments-billpay-notifications" id="44tqqqxePrqwcwKDG7mr-34">
          <mxCell style="sketch=0;points=[[0,0,0],[0.25,0,0],[0.5,0,0],[0.75,0,0],[1,0,0],[0,1,0],[0.25,1,0],[0.5,1,0],[0.75,1,0],[1,1,0],[0,0.25,0],[0,0.5,0],[0,0.75,0],[1,0.25,0],[1,0.5,0],[1,0.75,0]];outlineConnect=0;fontColor=#232F3E;gradientColor=#945DF2;gradientDirection=north;fillColor=#5A30B5;strokeColor=#ffffff;dashed=0;verticalLabelPosition=bottom;verticalAlign=top;align=center;html=1;fontSize=12;fontStyle=0;aspect=fixed;shape=mxgraph.aws4.resourceIcon;resIcon=mxgraph.aws4.managed_streaming_for_kafka;" vertex="1" parent="1">
            <mxGeometry x="432" y="890" width="78" height="78" as="geometry" />
          </mxCell>
        </UserObject>
        <mxCell id="-ej2Dla1abTBaA0Ay6HL-1" value="CPIF&lt;br&gt;Results" style="shape=process;whiteSpace=wrap;html=1;backgroundOutline=1;fillColor=#6d8764;fontColor=#ffffff;strokeColor=#3A5431;" vertex="1" parent="1">
          <mxGeometry x="320" y="710" width="120" height="60" as="geometry" />
        </mxCell>
        <mxCell id="-ej2Dla1abTBaA0Ay6HL-2" value="Transactions&lt;br&gt;API" style="shape=process;whiteSpace=wrap;html=1;backgroundOutline=1;fillColor=#6d8764;fontColor=#ffffff;strokeColor=#3A5431;" vertex="1" parent="1">
          <mxGeometry x="320" y="790" width="120" height="60" as="geometry" />
        </mxCell>
      </root>
    </mxGraphModel>
  </diagram>
  <diagram id="5EgSzn-4edumLIdP9C04" name="Capability API">
    <mxGraphModel dx="1114" dy="999" grid="1" gridSize="10" guides="1" tooltips="1" connect="1" arrows="1" fold="1" page="1" pageScale="1" pageWidth="850" pageHeight="1100" math="0" shadow="0">
      <root>
        <mxCell id="0" />
        <mxCell id="1" parent="0" />
      </root>
    </mxGraphModel>
  </diagram>
  <diagram id="Fk7SaA0x7shQRCRBxRCG" name="Funding API">
    <mxGraphModel dx="1114" dy="999" grid="1" gridSize="10" guides="1" tooltips="1" connect="1" arrows="1" fold="1" page="1" pageScale="1" pageWidth="850" pageHeight="1100" math="0" shadow="0">
      <root>
        <mxCell id="0" />
        <mxCell id="1" parent="0" />
        <mxCell id="88KFsehOqQ7N38VDTC-S-1" value="Funding&lt;br&gt;Request" style="ellipse;whiteSpace=wrap;html=1;aspect=fixed;fillColor=#e51400;fontColor=#ffffff;strokeColor=#B20000;" vertex="1" parent="1">
          <mxGeometry x="660" y="485" width="80" height="80" as="geometry" />
        </mxCell>
        <mxCell id="88KFsehOqQ7N38VDTC-S-3" value="" style="rounded=1;whiteSpace=wrap;html=1;fillColor=#008a00;fontColor=#ffffff;strokeColor=#005700;" vertex="1" parent="1">
          <mxGeometry x="260" y="460" width="260" height="770" as="geometry" />
        </mxCell>
        <mxCell id="88KFsehOqQ7N38VDTC-S-8" style="edgeStyle=orthogonalEdgeStyle;rounded=0;orthogonalLoop=1;jettySize=auto;html=1;flowAnimation=1;" edge="1" parent="1" source="88KFsehOqQ7N38VDTC-S-1" target="88KFsehOqQ7N38VDTC-S-2">
          <mxGeometry relative="1" as="geometry" />
        </mxCell>
        <mxCell id="88KFsehOqQ7N38VDTC-S-6" style="edgeStyle=orthogonalEdgeStyle;rounded=0;orthogonalLoop=1;jettySize=auto;html=1;entryX=0.5;entryY=0;entryDx=0;entryDy=0;entryPerimeter=0;flowAnimation=1;" edge="1" parent="1" source="88KFsehOqQ7N38VDTC-S-2" target="88KFsehOqQ7N38VDTC-S-5">
          <mxGeometry relative="1" as="geometry" />
        </mxCell>
        <mxCell id="88KFsehOqQ7N38VDTC-S-9" style="edgeStyle=orthogonalEdgeStyle;rounded=0;orthogonalLoop=1;jettySize=auto;html=1;exitX=0.5;exitY=1;exitDx=0;exitDy=0;entryX=0.5;entryY=1;entryDx=0;entryDy=0;flowAnimation=1;" edge="1" parent="1" source="88KFsehOqQ7N38VDTC-S-2" target="88KFsehOqQ7N38VDTC-S-1">
          <mxGeometry relative="1" as="geometry" />
        </mxCell>
        <mxCell id="88KFsehOqQ7N38VDTC-S-10" value="NO" style="edgeLabel;html=1;align=center;verticalAlign=middle;resizable=0;points=[];" vertex="1" connectable="0" parent="88KFsehOqQ7N38VDTC-S-9">
          <mxGeometry x="-0.8743" y="1" relative="1" as="geometry">
            <mxPoint as="offset" />
          </mxGeometry>
        </mxCell>
        <mxCell id="-sm06Govt4eTN5zeoGKf-2" style="edgeStyle=orthogonalEdgeStyle;rounded=0;orthogonalLoop=1;jettySize=auto;html=1;exitX=0;exitY=0.5;exitDx=0;exitDy=0;entryX=1;entryY=0.5;entryDx=0;entryDy=0;flowAnimation=1;" edge="1" parent="1" source="88KFsehOqQ7N38VDTC-S-2" target="-sm06Govt4eTN5zeoGKf-1">
          <mxGeometry relative="1" as="geometry" />
        </mxCell>
        <mxCell id="-sm06Govt4eTN5zeoGKf-3" value="YES" style="edgeLabel;html=1;align=center;verticalAlign=middle;resizable=0;points=[];" vertex="1" connectable="0" parent="-sm06Govt4eTN5zeoGKf-2">
          <mxGeometry x="-0.1091" y="2" relative="1" as="geometry">
            <mxPoint as="offset" />
          </mxGeometry>
        </mxCell>
        <mxCell id="88KFsehOqQ7N38VDTC-S-2" value="Check if valid &amp;amp; &lt;br&gt;Not Processed" style="rhombus;whiteSpace=wrap;html=1;" vertex="1" parent="1">
          <mxGeometry x="384" y="480" width="110" height="90" as="geometry" />
        </mxCell>
        <mxCell id="88KFsehOqQ7N38VDTC-S-5" value="" style="outlineConnect=0;dashed=0;verticalLabelPosition=bottom;verticalAlign=top;align=center;html=1;shape=mxgraph.aws3.oracle_db_instance;fillColor=#2E73B8;gradientColor=none;" vertex="1" parent="1">
          <mxGeometry x="550" y="760" width="60" height="64.5" as="geometry" />
        </mxCell>
        <mxCell id="-sm06Govt4eTN5zeoGKf-10" style="edgeStyle=orthogonalEdgeStyle;rounded=0;orthogonalLoop=1;jettySize=auto;html=1;entryX=0;entryY=0;entryDx=0;entryDy=35;entryPerimeter=0;flowAnimation=1;" edge="1" parent="1" source="-sm06Govt4eTN5zeoGKf-1" target="-sm06Govt4eTN5zeoGKf-9">
          <mxGeometry relative="1" as="geometry" />
        </mxCell>
        <mxCell id="-sm06Govt4eTN5zeoGKf-1" value="CPIF&lt;br&gt;Monitory Posting" style="shape=process;whiteSpace=wrap;html=1;backgroundOutline=1;fillColor=#6d8764;fontColor=#ffffff;strokeColor=#3A5431;" vertex="1" parent="1">
          <mxGeometry x="20" y="495" width="120" height="60" as="geometry" />
        </mxCell>
        <mxCell id="-sm06Govt4eTN5zeoGKf-12" style="edgeStyle=orthogonalEdgeStyle;rounded=0;orthogonalLoop=1;jettySize=auto;html=1;flowAnimation=1;" edge="1" parent="1" source="-sm06Govt4eTN5zeoGKf-4" target="-sm06Govt4eTN5zeoGKf-5">
          <mxGeometry relative="1" as="geometry" />
        </mxCell>
        <mxCell id="-sm06Govt4eTN5zeoGKf-16" value="No" style="edgeLabel;html=1;align=center;verticalAlign=middle;resizable=0;points=[];" vertex="1" connectable="0" parent="-sm06Govt4eTN5zeoGKf-12">
          <mxGeometry x="0.2" y="1" relative="1" as="geometry">
            <mxPoint as="offset" />
          </mxGeometry>
        </mxCell>
        <mxCell id="F8MUAp5L7JtrrmKPrXEh-1" style="edgeStyle=orthogonalEdgeStyle;rounded=0;orthogonalLoop=1;jettySize=auto;html=1;entryX=0.5;entryY=1;entryDx=0;entryDy=0;" edge="1" parent="1" source="-sm06Govt4eTN5zeoGKf-4" target="88KFsehOqQ7N38VDTC-S-1">
          <mxGeometry relative="1" as="geometry" />
        </mxCell>
        <mxCell id="-sm06Govt4eTN5zeoGKf-4" value="Is4xxError?" style="rhombus;whiteSpace=wrap;html=1;" vertex="1" parent="1">
          <mxGeometry x="275" y="680" width="80" height="80" as="geometry" />
        </mxCell>
        <mxCell id="-sm06Govt4eTN5zeoGKf-14" style="edgeStyle=orthogonalEdgeStyle;rounded=0;orthogonalLoop=1;jettySize=auto;html=1;entryX=0.5;entryY=0;entryDx=0;entryDy=0;flowAnimation=1;" edge="1" parent="1" source="-sm06Govt4eTN5zeoGKf-5" target="-sm06Govt4eTN5zeoGKf-6">
          <mxGeometry relative="1" as="geometry" />
        </mxCell>
        <mxCell id="-sm06Govt4eTN5zeoGKf-17" value="No" style="edgeLabel;html=1;align=center;verticalAlign=middle;resizable=0;points=[];" vertex="1" connectable="0" parent="-sm06Govt4eTN5zeoGKf-14">
          <mxGeometry x="0.15" y="1" relative="1" as="geometry">
            <mxPoint as="offset" />
          </mxGeometry>
        </mxCell>
        <mxCell id="-sm06Govt4eTN5zeoGKf-19" style="edgeStyle=orthogonalEdgeStyle;rounded=0;orthogonalLoop=1;jettySize=auto;html=1;entryX=0;entryY=0.5;entryDx=0;entryDy=0;flowAnimation=1;" edge="1" parent="1" source="-sm06Govt4eTN5zeoGKf-5" target="-sm06Govt4eTN5zeoGKf-8">
          <mxGeometry relative="1" as="geometry" />
        </mxCell>
        <mxCell id="-sm06Govt4eTN5zeoGKf-20" value="YES" style="edgeLabel;html=1;align=center;verticalAlign=middle;resizable=0;points=[];" vertex="1" connectable="0" parent="-sm06Govt4eTN5zeoGKf-19">
          <mxGeometry x="0.0222" y="-1" relative="1" as="geometry">
            <mxPoint as="offset" />
          </mxGeometry>
        </mxCell>
        <mxCell id="-sm06Govt4eTN5zeoGKf-5" value="Is5xxError?" style="rhombus;whiteSpace=wrap;html=1;" vertex="1" parent="1">
          <mxGeometry x="275" y="800" width="80" height="80" as="geometry" />
        </mxCell>
        <mxCell id="-sm06Govt4eTN5zeoGKf-25" style="edgeStyle=orthogonalEdgeStyle;rounded=0;orthogonalLoop=1;jettySize=auto;html=1;entryX=1;entryY=0.5;entryDx=0;entryDy=0;flowAnimation=1;" edge="1" parent="1" source="-sm06Govt4eTN5zeoGKf-6" target="-sm06Govt4eTN5zeoGKf-7">
          <mxGeometry relative="1" as="geometry" />
        </mxCell>
        <mxCell id="-sm06Govt4eTN5zeoGKf-26" value="No" style="edgeLabel;html=1;align=center;verticalAlign=middle;resizable=0;points=[];" vertex="1" connectable="0" parent="-sm06Govt4eTN5zeoGKf-25">
          <mxGeometry x="-0.04" relative="1" as="geometry">
            <mxPoint as="offset" />
          </mxGeometry>
        </mxCell>
        <mxCell id="-sm06Govt4eTN5zeoGKf-30" style="edgeStyle=orthogonalEdgeStyle;rounded=0;orthogonalLoop=1;jettySize=auto;html=1;flowAnimation=1;" edge="1" parent="1" source="-sm06Govt4eTN5zeoGKf-6" target="-sm06Govt4eTN5zeoGKf-27">
          <mxGeometry relative="1" as="geometry" />
        </mxCell>
        <mxCell id="-sm06Govt4eTN5zeoGKf-31" value="YES" style="edgeLabel;html=1;align=center;verticalAlign=middle;resizable=0;points=[];" vertex="1" connectable="0" parent="-sm06Govt4eTN5zeoGKf-30">
          <mxGeometry x="0.2444" y="1" relative="1" as="geometry">
            <mxPoint as="offset" />
          </mxGeometry>
        </mxCell>
        <mxCell id="-sm06Govt4eTN5zeoGKf-6" value="IsEndState?&amp;nbsp;" style="rhombus;whiteSpace=wrap;html=1;" vertex="1" parent="1">
          <mxGeometry x="270" y="975" width="90" height="90" as="geometry" />
        </mxCell>
        <mxCell id="-sm06Govt4eTN5zeoGKf-7" value="CPIF&lt;br&gt;Get Results" style="shape=process;whiteSpace=wrap;html=1;backgroundOutline=1;fillColor=#6d8764;fontColor=#ffffff;strokeColor=#3A5431;" vertex="1" parent="1">
          <mxGeometry x="20" y="990" width="120" height="60" as="geometry" />
        </mxCell>
        <mxCell id="-sm06Govt4eTN5zeoGKf-23" style="edgeStyle=orthogonalEdgeStyle;rounded=0;orthogonalLoop=1;jettySize=auto;html=1;entryX=1;entryY=0.5;entryDx=0;entryDy=0;dashed=1;dashPattern=8 8;flowAnimation=1;exitX=0.5;exitY=0;exitDx=0;exitDy=0;" edge="1" parent="1" source="-sm06Govt4eTN5zeoGKf-8" target="-sm06Govt4eTN5zeoGKf-1">
          <mxGeometry relative="1" as="geometry">
            <mxPoint x="452" y="790" as="sourcePoint" />
            <Array as="points">
              <mxPoint x="452" y="680" />
              <mxPoint x="380" y="680" />
              <mxPoint x="380" y="525" />
            </Array>
          </mxGeometry>
        </mxCell>
        <mxCell id="-sm06Govt4eTN5zeoGKf-24" value="NO" style="edgeLabel;html=1;align=center;verticalAlign=middle;resizable=0;points=[];" vertex="1" connectable="0" parent="-sm06Govt4eTN5zeoGKf-23">
          <mxGeometry x="-0.9164" y="-2" relative="1" as="geometry">
            <mxPoint x="1" as="offset" />
          </mxGeometry>
        </mxCell>
        <mxCell id="-sm06Govt4eTN5zeoGKf-38" style="edgeStyle=orthogonalEdgeStyle;rounded=0;orthogonalLoop=1;jettySize=auto;html=1;entryX=0.492;entryY=0.043;entryDx=0;entryDy=0;entryPerimeter=0;flowAnimation=1;" edge="1" parent="1" target="-sm06Govt4eTN5zeoGKf-33">
          <mxGeometry relative="1" as="geometry">
            <mxPoint x="450.5" y="880" as="sourcePoint" />
            <mxPoint x="448" y="1185" as="targetPoint" />
            <Array as="points">
              <mxPoint x="451" y="881" />
              <mxPoint x="448" y="881" />
              <mxPoint x="448" y="1033" />
              <mxPoint x="449" y="1033" />
            </Array>
          </mxGeometry>
        </mxCell>
        <mxCell id="px7rCWSif_fFcbyc3-P3-1" value="YES" style="edgeLabel;html=1;align=center;verticalAlign=middle;resizable=0;points=[];" vertex="1" connectable="0" parent="-sm06Govt4eTN5zeoGKf-38">
          <mxGeometry x="-0.801" y="2" relative="1" as="geometry">
            <mxPoint as="offset" />
          </mxGeometry>
        </mxCell>
        <mxCell id="-sm06Govt4eTN5zeoGKf-8" value="Retry Exhausted" style="rhombus;whiteSpace=wrap;html=1;" vertex="1" parent="1">
          <mxGeometry x="409" y="800" width="85" height="80" as="geometry" />
        </mxCell>
        <mxCell id="-sm06Govt4eTN5zeoGKf-11" style="edgeStyle=orthogonalEdgeStyle;rounded=0;orthogonalLoop=1;jettySize=auto;html=1;flowAnimation=1;" edge="1" parent="1" source="-sm06Govt4eTN5zeoGKf-9" target="-sm06Govt4eTN5zeoGKf-4">
          <mxGeometry relative="1" as="geometry" />
        </mxCell>
        <mxCell id="-sm06Govt4eTN5zeoGKf-9" value="Response" style="html=1;shape=mxgraph.infographic.ribbonBackFolded;dx=25;dy=15;notch=15;fillColor=#10739E;strokeColor=none;align=center;verticalAlign=middle;fontColor=#ffffff;fontSize=14;fontStyle=1;spacingTop=10;" vertex="1" parent="1">
          <mxGeometry x="260" y="570" width="110" height="55" as="geometry" />
        </mxCell>
        <mxCell id="-sm06Govt4eTN5zeoGKf-29" style="edgeStyle=orthogonalEdgeStyle;rounded=0;orthogonalLoop=1;jettySize=auto;html=1;entryX=1;entryY=0.5;entryDx=0;entryDy=0;flowAnimation=1;" edge="1" parent="1" source="-sm06Govt4eTN5zeoGKf-27" target="-sm06Govt4eTN5zeoGKf-28">
          <mxGeometry relative="1" as="geometry" />
        </mxCell>
        <mxCell id="-sm06Govt4eTN5zeoGKf-32" value="YES" style="edgeLabel;html=1;align=center;verticalAlign=middle;resizable=0;points=[];" vertex="1" connectable="0" parent="-sm06Govt4eTN5zeoGKf-29">
          <mxGeometry x="-0.25" y="1" relative="1" as="geometry">
            <mxPoint as="offset" />
          </mxGeometry>
        </mxCell>
        <mxCell id="-sm06Govt4eTN5zeoGKf-36" style="edgeStyle=orthogonalEdgeStyle;rounded=0;orthogonalLoop=1;jettySize=auto;html=1;exitX=0.5;exitY=1;exitDx=0;exitDy=0;entryX=0;entryY=0.5;entryDx=0;entryDy=0;entryPerimeter=0;flowAnimation=1;" edge="1" parent="1" source="-sm06Govt4eTN5zeoGKf-27" target="-sm06Govt4eTN5zeoGKf-33">
          <mxGeometry relative="1" as="geometry" />
        </mxCell>
        <mxCell id="F8MUAp5L7JtrrmKPrXEh-2" value="ALL" style="edgeLabel;html=1;align=center;verticalAlign=middle;resizable=0;points=[];" vertex="1" connectable="0" parent="-sm06Govt4eTN5zeoGKf-36">
          <mxGeometry x="-0.4468" y="-1" relative="1" as="geometry">
            <mxPoint as="offset" />
          </mxGeometry>
        </mxCell>
        <mxCell id="-sm06Govt4eTN5zeoGKf-27" value="Approved" style="rhombus;whiteSpace=wrap;html=1;" vertex="1" parent="1">
          <mxGeometry x="275" y="1100" width="80" height="80" as="geometry" />
        </mxCell>
        <mxCell id="-sm06Govt4eTN5zeoGKf-28" value="Transactions&lt;br&gt;API" style="shape=process;whiteSpace=wrap;html=1;backgroundOutline=1;fillColor=#6d8764;fontColor=#ffffff;strokeColor=#3A5431;" vertex="1" parent="1">
          <mxGeometry x="20" y="1110" width="120" height="60" as="geometry" />
        </mxCell>
        <mxCell id="-sm06Govt4eTN5zeoGKf-34" style="edgeStyle=orthogonalEdgeStyle;rounded=0;orthogonalLoop=1;jettySize=auto;html=1;entryX=0.5;entryY=1;entryDx=0;entryDy=0;flowAnimation=1;" edge="1" parent="1" source="-sm06Govt4eTN5zeoGKf-33" target="88KFsehOqQ7N38VDTC-S-1">
          <mxGeometry relative="1" as="geometry" />
        </mxCell>
        <mxCell id="-sm06Govt4eTN5zeoGKf-39" style="edgeStyle=orthogonalEdgeStyle;rounded=0;orthogonalLoop=1;jettySize=auto;html=1;entryX=0.5;entryY=0.975;entryDx=0;entryDy=0;entryPerimeter=0;flowAnimation=1;" edge="1" parent="1" source="-sm06Govt4eTN5zeoGKf-33" target="88KFsehOqQ7N38VDTC-S-5">
          <mxGeometry relative="1" as="geometry" />
        </mxCell>
        <mxCell id="-sm06Govt4eTN5zeoGKf-33" value="Update State &amp;amp;&amp;nbsp;&lt;br&gt;Return" style="html=1;shape=mxgraph.infographic.ribbonRolled;dx=185;dy=15;fillColor=#10739E;strokeColor=none;align=center;verticalAlign=middle;fontColor=#ffffff;fontSize=14;fontStyle=1;" vertex="1" parent="1">
          <mxGeometry x="384" y="1170" width="130" height="70" as="geometry" />
        </mxCell>
        <UserObject label="Go Back" link="data:page/id,Gg0yZXddBIerggFjbY7Z" id="-sm06Govt4eTN5zeoGKf-40">
          <mxCell style="rounded=1;whiteSpace=wrap;html=1;fillColor=#e3c800;fontColor=#000000;strokeColor=#B09500;" vertex="1" parent="1">
            <mxGeometry x="20" y="1260" width="120" height="60" as="geometry" />
          </mxCell>
        </UserObject>
      </root>
    </mxGraphModel>
  </diagram>
  <diagram id="7AZaEtM4KF_2q02m8fNL" name="Notification API">
    <mxGraphModel dx="1114" dy="999" grid="1" gridSize="10" guides="1" tooltips="1" connect="1" arrows="1" fold="1" page="1" pageScale="1" pageWidth="850" pageHeight="1100" math="0" shadow="0">
      <root>
        <mxCell id="0" />
        <mxCell id="1" parent="0" />
      </root>
    </mxGraphModel>
  </diagram>
</mxfile>
